<svg width="180" height="180" viewBox="0 0 180 180" fill="none" xmlns="http://www.w3.org/2000/svg">
<path d="M172.539 101.016V100.986C170.069 98.7158 166.93 97.2858 163.54 96.9059C157.501 96.2359 151.672 99.3058 148.373 104.406C142.834 112.955 136.215 121.125 128.676 128.675C120.387 136.965 111.299 144.174 101.88 149.984L99.9706 151.144L102.07 151.984C106.37 153.594 111.179 155.004 116.168 155.794L117.088 155.954L117.828 155.394C124.917 150.304 131.745 144.504 138.114 138.125C146.433 129.805 153.752 120.775 159.841 111.275C159.841 111.275 160.241 110.675 160.881 109.815C161.591 108.855 163.08 109.045 163.54 110.145C163.78 110.725 163.96 111.345 164.14 112.055C168.069 130.425 164.97 145.824 155.382 155.404C152.212 158.574 148.383 161.064 143.993 162.804C139.604 164.534 134.645 165.544 129.256 165.764C122.557 166.054 115.268 165.134 107.719 163.114C99.3707 160.964 92.0119 157.634 86.9427 154.984C74.3748 148.554 62.1468 139.555 51.2786 128.685C39.5405 116.945 29.9721 103.616 23.4831 89.9761C29.9821 76.3365 39.5405 63.0069 51.2786 51.2673C62.0268 40.5176 74.1148 31.5878 86.5528 25.168C91.682 22.4681 99.2807 18.9882 107.949 16.7783C115.418 14.7884 122.637 13.9084 129.266 14.1884C134.655 14.4084 139.614 15.4183 144.003 17.1483C148.393 18.8782 152.222 21.3682 155.392 24.5481C164.97 34.1278 168.089 49.5273 164.15 67.8967C163.98 68.6067 163.79 69.2167 163.55 69.7967C163.1 70.9067 161.601 71.0866 160.891 70.1267C160.251 69.2567 159.861 68.6667 159.861 68.6667C153.762 59.177 146.453 50.1373 138.134 41.8175C131.755 35.4377 124.937 29.6479 117.848 24.5481L117.058 24.0081L116.188 24.1481C111.209 24.9281 106.4 26.348 102.1 27.958L99.9906 28.7579L101.91 29.9579C111.339 35.7677 120.417 42.9675 128.706 51.2673C136.355 58.917 143.064 67.2068 148.633 75.8965C151.572 80.4764 156.551 83.1363 161.84 83.1363C162.78 83.1363 163.73 83.0463 164.68 82.8763C167.65 82.3363 170.379 80.9764 172.569 78.9564C174.928 76.7765 176.548 73.9166 177.238 70.6967C179.598 59.717 179.818 49.4473 177.928 40.1576C175.898 30.1779 171.499 21.7381 164.86 15.1084C156.111 6.39862 144.003 1.47876 129.836 0.868783C117.518 0.348799 103.8 3.09872 89.9822 8.86854C76.1745 3.10872 62.4467 0.348799 50.1388 0.868783C35.9711 1.46877 23.8631 6.39861 15.1345 15.1283C6.39592 23.8681 1.47672 35.9677 0.866822 50.1473C0.346907 62.4669 3.09646 76.1865 8.86551 90.0061V90.0261C11.2251 95.1859 14.1147 101.136 17.1842 106.586C23.7731 117.745 32.1317 128.455 41.8401 138.165C50.8886 147.214 60.827 155.084 71.1753 161.454C72.0252 161.974 71.8352 163.264 70.8654 163.504C63.8065 165.274 56.9976 166.064 50.7087 165.794C45.3196 165.574 40.3604 164.564 35.9711 162.834C31.5818 161.104 27.7524 158.614 24.5829 155.434C21.4135 152.264 18.9239 148.434 17.1842 144.044C15.4544 139.655 14.4446 134.695 14.2246 129.305C14.1047 126.365 14.1788 123.313 14.5088 120.184C14.5088 120.114 14.5846 119.455 14.5846 119.385L14.1846 118.755C11.3251 114.475 8.51557 109.465 5.95599 104.486L4.6462 101.906L3.87633 104.716C1.57671 113.435 0.546874 121.945 0.87682 129.855C1.47672 144.024 6.40592 156.134 15.1345 164.864C23.8631 173.594 35.9711 178.523 50.1388 179.123C51.1186 179.163 52.1184 179.193 53.1083 179.193C64.6464 179.193 77.2743 176.433 89.9822 171.134C102.69 176.423 115.328 179.193 126.856 179.193C127.846 179.193 128.846 179.173 129.826 179.123C143.993 178.523 156.101 173.594 164.83 164.864C171.459 158.234 175.858 149.804 177.898 139.815C179.788 130.525 179.558 120.245 177.208 109.275C176.518 106.046 174.908 103.196 172.539 101.016ZM16.4943 70.8467C14.7146 63.7769 13.9347 56.9671 14.2046 50.6673C14.4246 45.2774 15.4344 40.3176 17.1642 35.9277C18.8939 31.5378 21.3835 27.708 24.5629 24.5381C27.7324 21.3682 31.5618 18.8782 35.9511 17.1383C40.3404 15.4083 45.2996 14.3984 50.6887 14.1784C51.4885 14.1484 52.3084 14.1184 53.1183 14.1184C58.7274 14.1184 64.6964 14.9084 70.8654 16.4683C71.8352 16.7183 72.0352 17.9883 71.1753 18.5082C60.827 24.8781 50.8786 32.7578 41.8201 41.8075C32.7716 50.8573 24.8929 60.807 18.5239 71.1666C18.004 72.0166 16.7242 71.8166 16.4843 70.8567L16.4943 70.8467Z" fill="#25252A"/>
</svg>
